<?xml version="1.0" encoding="utf-8"?><svg width="1076" height="814" viewBox="0 0 1076 814" xmlns="http://www.w3.org/2000/svg" xmlns:xlink="http://www.w3.org/1999/xlink"><svg viewBox="0 0 44 24.1" width="44" height="24.1" id="arrow-bottom" x="563.43" y="512" xmlns="http://www.w3.org/2000/svg"><path d="M22 24.1 0 2.1 2.1 0 22 19.9 41.9 0 44 2.1l-22 22Z"/></svg><svg viewBox="0 0 27 44" width="27" height="44" id="arrow-left" x="302.31" y="563.43" xmlns="http://www.w3.org/2000/svg"><path d="M0 22 22 0l2.1 2.1L4.2 22l19.9 19.9L22 44 0 22z"/></svg><svg viewBox="0 0 27 44" width="27" height="44" id="arrow-right" x="329.31" y="563.43" xmlns="http://www.w3.org/2000/svg"><path d="M27 22 5 44l-2.1-2.1L22.8 22 2.9 2.1 5 0l22 22z"/></svg><svg viewBox="0 0 44 24.1" width="44" height="24.1" id="arrow-top" x="607.43" y="512" xmlns="http://www.w3.org/2000/svg"><path d="m22 0 22 22-2.1 2.1L22 4.2 2.1 24.1 0 22 22 0Z"/></svg><svg viewBox="0 0 41.301 41.301" style="enable-background:new 0 0 41.301 41.301" width="41.3" height="41.3" id="clock" x="356.31" y="563.43" xmlns="http://www.w3.org/2000/svg"><path style="fill:#1e201d" d="M20.642 0c5.698 0 10.857 2.317 14.602 6.047 3.73 3.746 6.047 8.905 6.047 14.603s-2.317 10.857-6.047 14.603c-3.746 3.73-8.904 6.047-14.602 6.047S9.786 38.983 6.056 35.253A20.572 20.572 0 0 1 .008 20.65 20.573 20.573 0 0 1 6.055 6.047 20.576 20.576 0 0 1 20.642 0zm10.524 19.523c.619 0 1.111.508 1.111 1.127s-.492 1.127-1.111 1.127H20.642c-.413 0-.778-.238-.968-.571l-.016-.016-.016-.032v-.016l-.016-.032-.016-.032v-.016l-.016-.032-.016-.016v-.032l-.016-.032v-.016l-.016-.032v-.064l-.016-.016V7.206c0-.619.492-1.111 1.111-1.111s1.127.492 1.127 1.111v12.317h9.398zm2.491-11.888c-3.333-3.333-7.936-5.381-13.015-5.381S10.96 4.301 7.627 7.635A18.408 18.408 0 0 0 2.246 20.65c0 5.079 2.063 9.682 5.381 13.016 3.333 3.333 7.936 5.381 13.015 5.381s9.682-2.048 13.015-5.381a18.355 18.355 0 0 0 5.397-13.016 18.35 18.35 0 0 0-5.397-13.015z"/></svg><svg viewBox="0 0 51.997 51.997" style="enable-background:new 0 0 51.997 51.997" xml:space="preserve" width="52" height="52" id="like" x="250.31" y="563.43" xmlns="http://www.w3.org/2000/svg"><path d="M51.911 16.242c-.759-8.354-6.672-14.415-14.072-14.415-4.93 0-9.444 2.653-11.984 6.905-2.517-4.307-6.846-6.906-11.697-6.906C6.759 1.826.845 7.887.087 16.241c-.06.369-.306 2.311.442 5.478 1.078 4.568 3.568 8.723 7.199 12.013l18.115 16.439 18.426-16.438c3.631-3.291 6.121-7.445 7.199-12.014.748-3.166.502-5.108.443-5.477zm-2.39 5.019c-.984 4.172-3.265 7.973-6.59 10.985L25.855 47.481 9.072 32.25c-3.331-3.018-5.611-6.818-6.596-10.99-.708-2.997-.417-4.69-.416-4.701l.015-.101c.65-7.319 5.731-12.632 12.083-12.632 4.687 0 8.813 2.88 10.771 7.515l.921 2.183.921-2.183c1.927-4.564 6.271-7.514 11.069-7.514 6.351 0 11.433 5.313 12.096 12.727.002.016.293 1.71-.415 4.707z"/></svg><svg viewBox="0 0 512 512" style="enable-background:new 0 0 512 512" xml:space="preserve" width="512" height="512" id="menu" x="563.43" xmlns="http://www.w3.org/2000/svg"><path d="M491.318 235.318H20.682C9.26 235.318 0 244.577 0 256s9.26 20.682 20.682 20.682h470.636c11.423 0 20.682-9.259 20.682-20.682 0-11.422-9.259-20.682-20.682-20.682zM491.318 78.439H20.682C9.26 78.439 0 87.699 0 99.121c0 11.422 9.26 20.682 20.682 20.682h470.636c11.423 0 20.682-9.26 20.682-20.682 0-11.422-9.259-20.682-20.682-20.682zM491.318 392.197H20.682C9.26 392.197 0 401.456 0 412.879s9.26 20.682 20.682 20.682h470.636c11.423 0 20.682-9.259 20.682-20.682s-9.259-20.682-20.682-20.682z"/></svg><svg style="enable-background:new 0 0 563.43 563.43" xml:space="preserve" viewBox="0 0 563.43 563.43" width="563.43" height="563.43" id="profile" xmlns="http://www.w3.org/2000/svg"><path d="M270.05 297.63c80.709 0 146.17-65.728 146.17-146.76 0-81.034-65.464-146.31-146.17-146.31-80.708 0-146.17 65.728-146.17 146.31 0 80.584 65.463 146.76 146.17 146.76zm0-254.81c59.186 0 107.61 48.62 107.61 108.05 0 59.426-48.426 108.05-107.61 108.05-59.186 0-107.61-48.62-107.61-108.05 0-59.426 48.425-108.05 107.61-108.05z" stroke="#000" stroke-width="9.713"/><path d="M25.392 560.46h512.24c10.86 0 19.458-8.597 19.458-19.457 0-101.81-82.808-185.07-185.07-185.07H191.01c-101.81 0-185.07 82.808-185.07 185.07 0 10.86 8.598 19.457 19.457 19.457zm165.62-165.62h181c74.211 0 135.3 55.206 144.8 126.7h-470.6c9.5-71.04 70.59-126.7 144.8-126.7z" stroke="#000" stroke-width="9.782"/></svg><svg viewBox="0 0 250.313 250.313" style="enable-background:new 0 0 250.313 250.313" xml:space="preserve" width="250.31" height="250.31" id="searcher" y="563.43" xmlns="http://www.w3.org/2000/svg"><path style="fill-rule:evenodd;clip-rule:evenodd" d="m244.186 214.604-54.379-54.378c-.289-.289-.628-.491-.93-.76 10.7-16.231 16.945-35.66 16.945-56.554C205.822 46.075 159.747 0 102.911 0S0 46.075 0 102.911c0 56.835 46.074 102.911 102.91 102.911 20.895 0 40.323-6.245 56.554-16.945.269.301.47.64.759.929l54.38 54.38c8.169 8.168 21.413 8.168 29.583 0 8.168-8.169 8.168-21.413 0-29.582zm-141.275-44.458c-37.134 0-67.236-30.102-67.236-67.235 0-37.134 30.103-67.236 67.236-67.236 37.132 0 67.235 30.103 67.235 67.236s-30.103 67.235-67.235 67.235z"/></svg><svg viewBox="0 0 33 33" style="enable-background:new 0 0 33 33" xml:space="preserve" width="33" height="33" id="speech-bubble" x="397.61" y="563.43" xmlns="http://www.w3.org/2000/svg"><path d="M7.282 32.706a.5.5 0 0 1-.5-.5v-7.124C2.405 22.806 0 18.821 0 13.828 0 6.112 7.093.294 16.5.294S33 6.112 33 13.828c0 7.715-7.093 13.533-16.5 13.533-.309 0-.612-.017-.916-.033l-.02-.001-8.007 5.296a.498.498 0 0 1-.275.083zM16.5 1.294C7.664 1.294 1 6.683 1 13.828c0 3.323 1.128 7.842 6.503 10.499a.5.5 0 0 1 .278.448v6.501l7.369-4.874a.456.456 0 0 1 .302-.082l.186.01c.286.016.571.031.861.031 8.836 0 15.5-5.388 15.5-12.533S25.336 1.294 16.5 1.294z"/></svg></svg>